<?xml version="1.0" encoding="UTF-8" standalone="no"?>
<!-- Generator: Adobe Illustrator 16.0.0, SVG Export Plug-In . SVG Version: 6.00 Build 0)  -->

<svg
   xmlns:dc="http://purl.org/dc/elements/1.1/"
   xmlns:cc="http://creativecommons.org/ns#"
   xmlns:rdf="http://www.w3.org/1999/02/22-rdf-syntax-ns#"
   xmlns:svg="http://www.w3.org/2000/svg"
   xmlns="http://www.w3.org/2000/svg"
   xmlns:sodipodi="http://sodipodi.sourceforge.net/DTD/sodipodi-0.dtd"
   xmlns:inkscape="http://www.inkscape.org/namespaces/inkscape"
   version="1.1"
   id="Capa_1"
   x="0px"
   y="0px"
   width="512px"
   height="512px"
   viewBox="0 0 512 512"
   style="enable-background:new 0 0 512 512;"
   xml:space="preserve"
   inkscape:version="0.91 r13725"
   sodipodi:docname="snow.svg"
   inkscape:export-filename="/home/akrherz/DEV/icons/snow.png"
   inkscape:export-xdpi="7.0300002"
   inkscape:export-ydpi="7.0300002"><metadata
     id="metadata41"><rdf:RDF><cc:Work
         rdf:about=""><dc:format>image/svg+xml</dc:format><dc:type
           rdf:resource="http://purl.org/dc/dcmitype/StillImage" /><dc:title></dc:title></cc:Work></rdf:RDF></metadata><defs
     id="defs39" /><sodipodi:namedview
     pagecolor="#ffffff"
     bordercolor="#666666"
     borderopacity="1"
     objecttolerance="10"
     gridtolerance="10"
     guidetolerance="10"
     inkscape:pageopacity="0"
     inkscape:pageshadow="2"
     inkscape:window-width="1053"
     inkscape:window-height="769"
     id="namedview37"
     showgrid="false"
     inkscape:zoom="0.4609375"
     inkscape:cx="-41.220339"
     inkscape:cy="256"
     inkscape:window-x="2744"
     inkscape:window-y="332"
     inkscape:window-maximized="0"
     inkscape:current-layer="Capa_1" /><rect
     style="fill:#ffffff;fill-opacity:1;stroke:#000000;stroke-width:2.12077332;stroke-linejoin:round;stroke-miterlimit:4;stroke-dasharray:none;stroke-opacity:1"
     id="rect5349"
     width="442.55551"
     height="301.53854"
     x="34.722252"
     y="26.044285" /><g
     id="g3"><path
       d="M 416,0 96,0 C 42.969,0 0,42.969 0,96 l 0,160 c 0,53.031 42.969,96 96,96 l 63.984,0 96.016,160 96,-160 64,0 c 53.031,0 96,-42.969 96,-96 L 512,96 C 512,42.969 469.031,0 416,0 Z m 60.20339,258.16949 c 0,17.625 -10.00552,60.06965 -27.66102,60.20339 l -286.38888,2.16949 -92.187388,0 c -17.641,0 -34.169491,-42.57839 -34.169491,-60.20339 l 0,-166.508472 C 35.79661,56.680085 78.359,29.288136 96,29.288136 l 320,0 C 433.656,29.288135 476.20339,78.375 476.20339,96 Z"
       id="path5"
       inkscape:connector-curvature="0"
       sodipodi:nodetypes="ssssscccsssssscsssssss"
       inkscape:export-xdpi="7.0300002"
       inkscape:export-ydpi="7.0300002" /></g><g
     id="g7" /><g
     id="g9" /><g
     id="g11" /><g
     id="g13" /><g
     id="g15" /><g
     id="g17" /><g
     id="g19" /><g
     id="g21" /><g
     id="g23" /><g
     id="g25" /><g
     id="g27" /><g
     id="g29" /><g
     id="g31" /><g
     id="g33" /><g
     id="g35" /><g
     transform="matrix(0.1495221,0,0,0.1495221,199.22015,31.637976)"
     id="g44"><path
       style="fill:#006df0"
       inkscape:connector-curvature="0"
       d="m 645.527,495.815 -75.609,-43.689 63.832,-38.015 c 10.262,-4.944 13.438,-18.724 7.602,-28.855 -5.941,-10.375 -18.764,-12.563 -28.498,-6.89 l -85.107,49.849 -135.259,-78.705 135.258,-77.894 85.107,49.768 c 2.658,1.945 6.078,3.08 9.881,3.08 7.213,0 13.674,-3.404 18.617,-9.889 5.699,-10.294 2.66,-23.911 -7.602,-28.855 l -63.832,-38.015 75.609,-43.688 c 9.855,-5.674 13.244,-18.4 7.602,-28.856 -5.389,-10.051 -18.723,-13.536 -28.879,-7.619 l -75.99,44.094 -1.135,-76.03 c -0.178,-11.753 -9.119,-21.237 -20.896,-21.237 -11.775,0 -20.984,10.213 -20.895,21.237 l 0.754,100.346 -134.496,77.894 0,-158.058 84.727,-48.309 c 9.891,-5.593 14.201,-18.643 8.357,-28.855 -5.934,-10.375 -18.115,-13.456 -28.498,-7.619 l -64.586,36.475 0,-86.244 C 371.591,9.483 362.091,0 350.314,0 338.537,0 329.418,9.483 329.418,21.236 l 0,87.053 -66.871,-37.285 c -10.416,-5.755 -22.274,-2.513 -28.118,7.619 -5.933,10.375 -2.245,23.101 7.976,28.855 l 87.013,49.039 0,156.518 -137.542,-79.353 0.762,-98.077 c 1.143,-11.023 -8.738,-21.237 -20.515,-21.237 l -0.762,0 c -11.016,0 -20.774,9.484 -20.896,21.237 l -0.762,73.76 -74.084,-42.554 c -10.343,-5.998 -23.109,-2.432 -28.499,7.538 -5.642,10.537 -2.724,22.939 7.603,28.937 l 74.846,43.283 -65.354,39.15 C 53.96,290.664 50.758,304.443 57,314.575 c 4.02,6.566 9.873,9.889 17.856,9.889 4.174,0 7.651,-1.054 11.015,-3.08 L 171.36,270.886 308.522,349.51 171.36,428.944 85.871,378.366 c -10.262,-5.998 -23.49,-3.161 -28.872,6.89 -5.642,10.456 -2.578,23.02 7.214,28.855 l 65.355,38.744 -74.847,43.689 c -10.302,5.998 -13.642,18.643 -7.603,28.937 4.224,7.133 9.882,10.619 17.858,10.619 1.897,0 5.698,-1.135 10.643,-3.08 l 74.084,-42.554 0.762,73.76 c 0.122,11.753 9.88,20.831 20.896,20.831 l 0.762,0 c 11.777,0 20.604,-9.808 20.515,-21.642 l -0.762,-97.996 137.542,-78.623 0,155.707 -87.013,49.038 c -10.383,5.836 -14.015,18.562 -7.976,28.856 4.223,7.214 9.881,10.699 17.856,10.699 3.802,0 7.303,-0.648 10.262,-2.351 l 66.871,-37.935 0,88.513 c 0,11.753 9.119,20.912 20.896,20.912 11.777,0 21.277,-9.159 21.277,-20.912 l 0,-87.054 64.586,36.476 c 2.957,1.702 6.459,2.351 9.881,2.351 8.355,0 14.516,-3.404 18.617,-10.699 5.771,-10.213 2.043,-23.021 -8.357,-28.856 l -84.727,-47.498 0,-158.058 134.496,77.894 -0.754,99.536 c -0.098,11.834 9.119,21.642 20.896,21.642 11.777,0 20.717,-9.078 20.895,-20.831 l 1.135,-76.435 75.99,44.499 c 2.934,1.702 6.84,2.27 11.023,2.27 7.977,0 13.828,-3.323 17.855,-9.889 6.236,-10.132 2.255,-23.182 -7.6,-28.856 z"
       id="path46" /></g><path
     style="fill:#006df0"
     inkscape:connector-curvature="0"
     d="m 419.49232,106.56466 -11.30521,-6.53247 9.54429,-5.684092 c 1.5344,-0.73923 2.00928,-2.79965 1.13667,-4.31446 -0.88831,-1.55129 -2.80564,-1.87844 -4.26108,-1.0302 l -12.72538,7.45352 -20.22421,-11.76813 20.22406,-11.646877 12.72538,7.441416 c 0.39743,0.290821 0.90879,0.460531 1.47743,0.460531 1.0785,0 2.04456,-0.508977 2.78365,-1.478627 0.85212,-1.539181 0.39773,-3.575223 -1.13667,-4.314461 l -9.54429,-5.684082 11.30521,-6.532322 c 1.47354,-0.848388 1.98027,-2.751206 1.13667,-4.314609 -0.80577,-1.502847 -2.7995,-2.023932 -4.31805,-1.139209 L 404.94861,64.073615 404.7789,52.70545 c -0.0266,-1.757333 -1.36349,-3.175401 -3.12441,-3.175401 -1.76063,0 -3.13758,1.527069 -3.12427,3.175401 l 0.11274,15.003945 -20.11012,11.646874 0,-23.633164 12.66856,-7.223263 c 1.47892,-0.836277 2.12336,-2.787541 1.24955,-4.31446 -0.88726,-1.551292 -2.70859,-2.01197 -4.26108,-1.139209 l -9.65703,5.453818 0,-12.895383 c 0,-1.757334 -1.42046,-3.175252 -3.18139,-3.175252 -1.76092,0 -3.12441,1.417918 -3.12441,3.175252 l 0,13.016347 -9.99869,-5.574932 c -1.55742,-0.860499 -3.33046,-0.375749 -4.20426,1.139209 -0.88712,1.551292 -0.33568,3.45411 1.19258,4.31446 l 13.01037,7.332415 0,23.4029 -20.56557,-11.865028 0.11394,-14.664679 c 0.1709,-1.648182 -1.30653,-3.1754 -3.06745,-3.1754 l -0.11393,0 c -1.64714,0 -3.10618,1.418067 -3.12442,3.1754 l -0.11393,11.02875 -11.0772,-6.362763 c -1.54651,-0.896834 -3.4553,-0.363638 -4.26123,1.127098 -0.8436,1.575514 -0.4073,3.429887 1.13682,4.326721 l 11.19113,6.471765 -9.77187,5.85379 c -1.53335,0.739387 -2.01212,2.799652 -1.0788,4.31461 0.60108,0.981762 1.47623,1.478627 2.66987,1.478627 0.6241,0 1.14399,-0.1576 1.64698,-0.460531 l 12.7825,-7.550567 20.50875,11.756028 -20.50875,11.87714 -12.7825,-7.56253 c -1.53439,-0.89684 -3.51227,-0.47264 -4.317,1.0302 -0.8436,1.56341 -0.38547,3.442 1.07865,4.31446 l 9.77202,5.793092 -11.19128,6.53247 c -1.54038,0.89683 -2.03978,2.78754 -1.13682,4.32672 0.63158,1.06654 1.47758,1.58778 2.67017,1.58778 0.28364,0 0.85197,-0.16971 1.59136,-0.46053 l 11.0772,-6.36277 0.11393,11.02875 c 0.0182,1.75734 1.47728,3.1147 3.12442,3.1147 l 0.11393,0 c 1.76092,0 3.08076,-1.46651 3.06745,-3.23596 l -0.11394,-14.65257 20.56557,-11.755872 0,23.281642 -13.01037,7.33226 c -1.55248,0.87261 -2.09555,2.77543 -1.19258,4.31461 0.63143,1.07865 1.47742,1.59974 2.66986,1.59974 0.56849,0 1.09196,-0.0969 1.5344,-0.35153 l 9.99869,-5.67212 0,13.23465 c 0,1.75733 1.36349,3.12681 3.12441,3.12681 1.76093,0 3.18139,-1.36948 3.18139,-3.12681 l 0,-13.0165 9.65703,5.45397 c 0.44214,0.25449 0.96576,0.35153 1.47743,0.35153 1.24926,0 2.17046,-0.50898 2.78365,-1.59974 0.86289,-1.52707 0.30548,-3.44215 -1.24955,-4.31461 l -12.66856,-7.102 0,-23.633162 20.11012,11.646872 -0.11274,14.88283 c -0.0147,1.76945 1.36349,3.23596 3.12441,3.23596 1.76093,0 3.09765,-1.35736 3.12427,-3.1147 l 0.16971,-11.42872 11.36218,6.65359 c 0.4387,0.25448 1.02273,0.33941 1.64818,0.33941 1.19274,0 2.06759,-0.49686 2.66972,-1.47862 0.93242,-1.51496 0.33717,-3.46622 -1.13637,-4.31461 z"
     id="path46-8" /><path
     style="fill:#006df0"
     inkscape:connector-curvature="0"
     d="m 174.33978,108.56466 -11.30522,-6.53247 9.5443,-5.68408 c 1.5344,-0.73924 2.00928,-2.79965 1.13667,-4.314463 -0.88831,-1.55129 -2.80564,-1.87845 -4.26108,-1.03021 l -12.72538,7.453533 -20.22421,-11.768143 20.22406,-11.64687 12.72538,7.44141 c 0.39743,0.29082 0.90879,0.46053 1.47742,0.46053 1.07851,0 2.04457,-0.50897 2.78366,-1.47862 0.85212,-1.53918 0.39773,-3.57523 -1.13667,-4.31446 l -9.54429,-5.68409 11.30521,-6.53232 c 1.47354,-0.84839 1.98027,-2.751204 1.13667,-4.314607 -0.80578,-1.502847 -2.7995,-2.023932 -4.31805,-1.139209 l -11.36218,6.593026 -0.16971,-11.368164 c -0.0266,-1.757333 -1.36349,-3.175401 -3.12442,-3.175401 -1.76062,0 -3.13757,1.527069 -3.12426,3.175401 l 0.11274,15.003944 -20.11012,11.64687 0,-23.633159 12.66855,-7.223263 c 1.47893,-0.836277 2.12337,-2.787541 1.24956,-4.31446 -0.88726,-1.551292 -2.70859,-2.01197 -4.26108,-1.139209 l -9.65703,5.453818 0,-12.895384 c 0,-1.757333 -1.42046,-3.175251 -3.18139,-3.175251 -1.76092,0 -3.12441,1.417918 -3.12441,3.175251 l 0,13.016348 -9.99869,-5.574932 c -1.55742,-0.8605 -3.33046,-0.375749 -4.20426,1.139209 -0.88712,1.551292 -0.33568,3.45411 1.19258,4.31446 l 13.01037,7.332415 0,23.402897 -20.56557,-11.86503 0.11394,-14.664674 c 0.1709,-1.648182 -1.30653,-3.1754 -3.06745,-3.1754 l -0.11393,0 c -1.64714,0 -3.10618,1.418067 -3.12442,3.1754 L 100.20314,65.734057 89.125938,59.37129 c -1.54651,-0.896834 -3.45531,-0.363638 -4.26123,1.127098 -0.8436,1.575514 -0.4073,3.429889 1.13682,4.326719 l 11.19113,6.47177 -9.77187,5.85379 c -1.53335,0.73938 -2.01212,2.79965 -1.0788,4.31461 0.60108,0.98176 1.47623,1.47862 2.66987,1.47862 0.6241,0 1.14399,-0.1576 1.64698,-0.46053 l 12.782502,-7.55056 20.50875,11.75602 -20.50875,11.877143 -12.782502,-7.562533 c -1.53439,-0.89683 -3.51227,-0.47264 -4.317,1.03021 -0.8436,1.563403 -0.38547,3.442003 1.07865,4.314463 l 9.77202,5.79308 -11.19128,6.53247 c -1.54038,0.89684 -2.03978,2.78754 -1.13682,4.32672 0.63158,1.06655 1.47758,1.58778 2.67017,1.58778 0.28364,0 0.85197,-0.16971 1.59136,-0.46053 l 11.077202,-6.36276 0.11393,11.02875 c 0.0182,1.75733 1.47728,3.11469 3.12442,3.11469 l 0.11393,0 c 1.76092,0 3.08075,-1.46651 3.06745,-3.23595 l -0.11394,-14.65257 20.56557,-11.755883 0,23.281643 -13.01037,7.33226 c -1.55248,0.87262 -2.09555,2.77543 -1.19258,4.31461 0.63143,1.07866 1.47742,1.59974 2.66986,1.59974 0.56848,0 1.09196,-0.0969 1.5344,-0.35153 l 9.99869,-5.67212 0,13.23465 c 0,1.75733 1.36349,3.12681 3.12441,3.12681 1.76093,0 3.18139,-1.36948 3.18139,-3.12681 l 0,-13.01649 9.65703,5.45396 c 0.44214,0.25449 0.96576,0.35153 1.47743,0.35153 1.24925,0 2.17046,-0.50897 2.78365,-1.59974 0.86289,-1.52707 0.30547,-3.44214 -1.24956,-4.31461 l -12.66855,-7.102 0,-23.633163 20.11012,11.646873 -0.11274,14.88284 c -0.0147,1.76944 1.36349,3.23595 3.12441,3.23595 1.76093,0 3.09765,-1.35736 3.12427,-3.11469 l 0.16971,-11.42872 11.36218,6.65358 c 0.4387,0.25449 1.02273,0.33942 1.64818,0.33942 1.19274,0 2.06759,-0.49687 2.66972,-1.47863 0.93242,-1.51496 0.33717,-3.46622 -1.13637,-4.31461 z"
     id="path46-4" /></svg>